<?xml version="1.0" encoding="UTF-8"?>
<svg id="Layer_1" xmlns="http://www.w3.org/2000/svg" viewBox="0 0 494.78 477.56">
  <defs>
    <style>
      .cls-1 {
        fill: #d6ff62;
      }
    </style>
  </defs>
  <path class="cls-1" d="M145.39,369.51c8.53-4.82,16.22-9.12,23.87-13.48,31.03-17.67,62.03-35.39,93.12-52.96,2.77-1.57,3.4-3.88,4.09-6.47,12.68-47.31,25.36-94.61,38.05-141.91,13.46-50.16,26.95-100.32,40.3-150.51.87-3.27,2.35-4.28,5.55-4.16,5.88.21,11.79.28,17.66.01,3.4-.16,4.6,1.2,5.42,4.32,11.09,42.22,22.29,84.41,33.48,126.61,6.33,23.88,12.69,47.76,19.05,71.64.52,1.95,1.14,3.88,1.92,6.54,17.49-9.89,34.56-19.54,52.04-29.42,4.53,7.84,8.86,15.33,13.41,23.19-2.02,1.28-3.77,2.49-5.61,3.53-16.47,9.35-32.93,18.74-49.48,27.95-2.65,1.47-3.23,2.95-2.37,5.78,1.76,5.75,3.15,11.61,4.72,17.42.32,1.19.78,2.35,1.39,4.17,12.43-7.16,24.45-14.08,36.76-21.16,4.6,7.95,8.99,15.55,13.54,23.43-9.65,5.57-18.94,10.94-28.23,16.31-3.99,2.3-7.91,4.74-12.01,6.83-2.44,1.25-2.8,2.68-2.12,5.21,8.54,32.03,16.96,64.1,25.45,96.14,6.3,23.75,12.62,47.5,19.04,71.22.75,2.76.42,4.34-2.3,5.8-6.86,3.69-13.52,7.75-20.89,12.02-15.49-58.26-30.85-116.05-46.36-174.39-1.96,1-3.2,1.58-4.37,2.25-49.47,28.5-98.93,57.04-148.45,85.46-2.65,1.52-3.7,3.54-4.42,6.23-6.88,25.69-13.82,51.36-20.75,77.04-.26.98-.65,1.92-1.15,3.37-7.68-4.42-15.23-8.67-22.63-13.17-.69-.42-.85-2.49-.56-3.61,3.63-13.99,7.39-27.94,11.1-41.91.45-1.7.76-3.45,1.34-6.1-2.09,1.03-3.51,1.65-4.85,2.42-29.39,16.93-58.8,33.85-88.13,50.89-2.59,1.51-4.49,1.49-6.97-.08-4.32-2.74-8.81-5.23-13.34-7.6-2.56-1.34-3.63-3-3.57-6.02.2-10.37.08-20.74.07-31.11,0-1.34-.14-2.68-.27-4.79-5.54,3-10.48,5.58-15.33,8.33-24.06,13.62-48.13,27.23-72.11,41.01-2.75,1.58-4.73,1.48-7.33-.08-7.44-4.47-15.03-8.71-23.16-13.38,1.65-1.05,2.76-1.82,3.93-2.48,31.73-18.01,63.47-36,95.2-54.02,5.23-2.97,10.35-6.15,15.66-8.97,2.64-1.4,3.47-3.18,3.47-6.11-.08-50.06-.07-100.13-.07-150.19,0-75.41.03-150.83-.05-226.24,0-3.44,1.07-4.42,4.4-4.29,6.01.24,12.04.27,18.05,0,3.54-.16,4.58.98,4.56,4.51-.12,29.45-.06,58.9-.06,88.36,0,90.39,0,180.79,0,271.18,0,1.49.16,2.98.3,5.43ZM298.24,282.53c2.04-1.03,3.14-1.52,4.18-2.12,32.47-18.47,64.91-37,97.44-55.38,2.87-1.62,3.53-3.13,2.67-6.34-14.02-52.4-27.91-104.83-41.84-157.25-.33-1.24-.84-2.43-1.27-3.64-.34.03-.68.06-1.02.1-19.96,74.52-39.92,149.05-60.16,224.62ZM410.9,250.5c-1.28.55-1.88.74-2.43,1.05-39.23,22.16-78.46,44.32-117.62,66.59-1.45.82-2.73,2.71-3.21,4.35-2.83,9.83-5.42,19.73-8.04,29.62-.23.88-.18,1.83-.33,3.44,2.31-1.28,3.99-2.16,5.63-3.11,23.4-13.49,46.79-26.98,70.19-40.48,19.73-11.39,39.48-22.75,59.16-34.24,1.26-.74,2.91-2.75,2.68-3.79-1.73-7.71-3.88-15.32-6.03-23.43ZM145.07,432.69c1.99-.96,3.04-1.38,4.02-1.94,31.14-17.94,62.29-35.86,93.36-53.93,1.65-.96,3.19-3.01,3.73-4.86,2.62-8.94,4.9-17.99,7.28-27.01.47-1.79.89-3.59,1.6-6.42-7.54,4.2-14.12,7.82-20.66,11.52-28.72,16.26-57.4,32.56-86.15,48.76-2.31,1.3-3.33,2.81-3.21,5.46.17,4.09.04,8.18.04,12.28,0,5.07,0,10.14,0,16.15Z"/>
</svg>